<svg width="548" height="397" viewBox="0 0 548 397" fill="none" xmlns="http://www.w3.org/2000/svg">
<g filter="url(#filter0_d_108_1540)">
<path d="M544 233.484C544 301.139 503.706 324.761 454 324.761C404.294 324.761 364 301.139 364 233.484C364 165.829 454 79.7615 454 79.7615C454 79.7615 544 165.829 544 233.484Z" fill="#F2F2F2"/>
<path d="M450.955 314.639L451.871 257.963L490 187.848L452.015 249.073L452.427 223.589L478.705 172.861L452.535 216.845V216.845L453.276 171.011L481.416 130.625L453.392 163.804L453.855 79.7615L450.947 191.019L451.186 186.429L422.576 142.411L450.727 195.24L448.061 246.428L447.982 245.069L415 198.747L447.882 249.869L447.549 256.27L447.489 256.367L447.516 256.892L440.753 386.761H449.789L450.873 319.682L483.675 268.684L450.955 314.639Z" fill="#3F3D56"/>
<path d="M53 346.172C53 364.398 42.031 370.761 28.5 370.761C14.969 370.761 4 364.398 4 346.172C4 327.947 28.5 304.761 28.5 304.761C28.5 304.761 53 327.947 53 346.172Z" fill="#F2F2F2"/>
<path d="M27.5881 367.263L27.8321 351.94L38 332.983L27.8705 349.536L27.9803 342.646L34.988 328.931L28.0095 340.823L28.2069 328.431L35.7111 317.513L28.2382 326.483L28.3616 303.761L27.586 333.84L27.6493 332.6L20.0201 320.699L27.527 334.982L26.8164 348.821L26.7953 348.454L18 335.93L26.7682 349.751L26.6795 351.482L26.6638 351.508L26.6709 351.65L24.8671 386.761H27.2772L27.566 368.626L36.3136 354.838L27.5881 367.263Z" fill="#3F3D56"/>
<path d="M7 387.261H496" stroke="#3F3D56" stroke-width="2"/>
<path d="M497 370.996C497 383.423 489.613 387.761 480.5 387.761C480.289 387.761 480.078 387.759 479.868 387.754C479.445 387.745 479.027 387.725 478.614 387.697C470.39 387.115 464 382.553 464 370.996C464 359.036 479.284 343.945 480.432 342.828L480.434 342.826C480.478 342.783 480.5 342.761 480.5 342.761C480.5 342.761 497 358.57 497 370.996Z" fill="#111B47"/>
<path d="M479.712 385.867L485.819 377.433L479.696 386.793L479.68 387.761C479.253 387.752 478.83 387.732 478.411 387.704L479.07 375.27L479.065 375.173L479.076 375.155L479.138 373.981L473 364.598L479.157 373.1L479.171 373.349L479.669 363.954L474.414 354.259L479.733 362.305L480.251 342.828L480.253 342.761V342.826L480.166 358.185L485.398 352.096L480.145 359.508L480.007 367.92L484.891 359.847L479.986 369.158L479.909 373.834L487 362.598L479.883 375.466L479.712 385.867Z" fill="#3F3D56"/>
<rect x="317" y="88.7615" width="6" height="47" rx="2.29166" fill="#3F3D56"/>
<rect x="128" y="51.7615" width="3" height="15" rx="1.5" fill="#3F3D56"/>
<rect x="128" y="79.7615" width="4" height="27" rx="1.6946" fill="#3F3D56"/>
<rect x="128" y="116.761" width="3" height="27" rx="1.5" fill="#3F3D56"/>
<rect x="130" y="0.761475" width="190" height="386" rx="35.694" fill="#3F3D56"/>
<rect x="206" y="12.7615" width="27" height="5" rx="2.5" fill="#E6E8EC"/>
<path d="M240 17.7615C241.657 17.7615 243 16.4183 243 14.7615C243 13.1046 241.657 11.7615 240 11.7615C238.343 11.7615 237 13.1046 237 14.7615C237 16.4183 238.343 17.7615 240 17.7615Z" fill="#E6E8EC"/>
<path d="M309 25.8511V361.677C308.998 370.01 302.223 376.763 293.867 376.761H157.133C148.777 376.763 142.002 370.01 142 361.677V25.8511C142 21.849 143.594 18.0107 146.432 15.1808C149.27 12.3508 153.119 10.7611 157.133 10.7615H177.594V13.3819C177.596 20.2433 183.174 25.8051 190.055 25.8071H259.592C266.474 25.8071 272.053 20.2442 272.053 13.3819V10.7615H293.867C297.881 10.7611 301.73 12.3508 304.568 15.1808C307.406 18.0107 309 21.849 309 25.8511Z" fill="white"/>
<rect x="142" y="88.7615" width="167" height="192" fill="#F2F2F2"/>
<path d="M154 306.761L153.13 305.982C150.04 303.165 148.001 301.336 148.001 299.059C147.985 298.183 148.327 297.339 148.949 296.717C149.57 296.096 150.419 295.752 151.3 295.762C152.343 295.767 153.33 296.228 154 297.021C154.67 296.228 155.657 295.767 156.7 295.762C157.581 295.752 158.43 296.096 159.051 296.717C159.673 297.339 160.015 298.183 159.999 299.059C159.999 301.336 157.96 303.165 154.87 305.982L154 306.761Z" fill="#FF6584"/>
<path d="M185 304.299L186.734 304.761C187.363 303.06 188.85 301.756 190.709 301.277C192.568 300.798 194.561 301.205 196.036 302.365L193.387 304.761H200V298.761L197.335 301.146C195.4 299.562 192.741 298.99 190.258 299.625C187.776 300.26 185.8 302.015 185 304.299L185 304.299Z" fill="#F2F2F2"/>
<path d="M152.5 74.7615C156.642 74.7615 160 71.4036 160 67.2615C160 63.1193 156.642 59.7615 152.5 59.7615C148.358 59.7615 145 63.1193 145 67.2615C145 71.4036 148.358 74.7615 152.5 74.7615Z" fill="#111B47"/>
<rect x="166" y="62.7615" width="72" height="9" fill="#111B47"/>
<rect x="147" y="319.761" width="72" height="9" fill="#F2F2F2"/>
<rect x="148" y="338.761" width="151" height="9" fill="#F2F2F2"/>
<path d="M178 306.761L176.156 303.475C177.068 301.245 176.229 298.672 174.189 297.44C172.149 296.208 169.53 296.693 168.046 298.578C166.563 300.462 166.668 303.171 168.292 304.931C169.916 306.691 172.564 306.966 174.503 305.574L178 306.761Z" fill="#F2F2F2"/>
<path d="M210.555 133.212H210.555C204.85 134.391 199.842 137.812 196.634 142.722C193.425 147.631 192.278 153.627 193.446 159.391L197.977 181.761L203.051 180.713L203.409 178.342L204.472 180.419L235.318 174.042L235.676 171.671L236.739 173.748L241 172.867L236.468 150.496C235.301 144.733 231.915 139.674 227.055 136.432C222.196 133.191 216.26 132.032 210.555 133.212Z" fill="#2F2E41"/>
<path d="M249.647 201.761L276 217.948L272.706 225.761L248 214.041L249.647 201.761Z" fill="#9F616A"/>
<path d="M215.906 220.4C215.906 220.4 162.392 220.4 153.565 234.161C144.738 247.922 151.91 267.187 179.495 271.591C207.079 275.994 290.937 278.196 297.557 261.683C304.178 245.17 299.213 235.812 299.213 235.812C299.213 235.812 270.524 215.996 215.906 220.4Z" fill="#111B47"/>
<path d="M262.606 233.747L292 244.761C292 244.761 304.202 235.95 298.101 226.037C292 216.123 264.269 158.847 264.269 158.847C264.269 158.847 256.505 147.832 266.488 141.774C276.471 135.716 280.353 145.629 280.353 145.629C280.353 145.629 279.799 147.832 283.681 146.18C287.563 144.528 294.774 150.035 290.891 158.847C287.009 167.659 284.236 169.862 292.555 169.311C295.559 169.112 298.202 166.974 300.352 164.323C304.474 159.243 302.634 155.151 302.322 148.634C301.788 137.471 300.914 130.193 298.101 125.803C294.219 119.745 288.673 114.788 274.253 117.542C259.833 120.295 238.757 134.064 243.749 153.89C248.74 173.717 259.833 195.746 259.833 195.746C259.833 195.746 267.597 226.587 262.606 233.747Z" fill="#111B47"/>
<path opacity="0.1" d="M263 233.538C258.238 234.852 252.257 235.492 245.82 235.691C234.587 236.039 221.943 235.045 211.845 233.919C200.937 232.699 193 231.33 193 231.33C196.687 227.885 202.354 226.522 209.012 226.025C217.28 225.406 227.08 226.113 236.543 225.809C240.032 225.687 243.524 225.95 246.955 226.593C257.395 228.586 263 233.538 263 233.538Z" fill="black"/>
<path d="M215.5 173.761C224.06 173.761 231 166.822 231 158.261C231 149.701 224.06 142.761 215.5 142.761C206.94 142.761 200 149.701 200 158.261C200 166.822 206.94 173.761 215.5 173.761Z" fill="#9F616A"/>
<path d="M213.253 170.873C213.253 170.873 215.975 181.428 213.253 181.984C210.532 182.539 204 185.317 204 185.317L212.165 188.65L227.405 203.095L240.468 209.761L247 207.539V195.317L237.203 179.761C237.203 179.761 230.671 181.984 229.038 174.761C227.405 167.539 224.139 164.761 224.139 164.761L213.253 170.873Z" fill="#9F616A"/>
<path d="M209.355 185.761H202.739C202.739 185.761 191.159 189.598 184.543 198.368C177.926 207.137 167.45 215.907 167.45 215.907C167.45 215.907 160.282 225.773 164.141 239.475C168.001 253.177 173.515 263.043 178.477 260.303C183.44 257.562 171.309 237.831 171.309 237.831L174.618 225.773C174.618 225.773 191.711 206.041 198.879 206.589C206.047 207.137 206.598 213.166 206.598 213.166L222.037 217.551L227 207.137L224.243 196.175L209.355 185.761Z" fill="#9F616A"/>
<path d="M248.775 220.999C247.739 222.771 246.979 224.69 246.522 226.69C245.838 229.644 245.459 232.661 245.393 235.692C234.22 236.036 221.645 235.053 211.601 233.938C210.713 231.579 209.737 228.864 208.784 226.128C206.212 218.732 203.822 211.184 203.822 210.075C203.822 207.89 215.335 211.714 218.076 211.168C220.817 210.621 221.913 201.882 218.076 197.513C214.238 193.143 203 185.77 203 185.77L206.837 184.677C206.837 184.677 215.335 190.958 232.877 201.336C250.42 211.714 243.293 195.328 243.293 195.328L233.151 179.761H237.537C237.537 179.761 246.034 194.236 250.42 200.79C254.806 207.344 253.161 213.899 248.775 220.999Z" fill="#3F3D56"/>
<path d="M198.366 143.663L226.282 137.95L229.788 155.08L201.872 160.793L198.366 143.663Z" fill="#2F2E41"/>
<path d="M286.5 140.761C291.194 140.761 295 136.956 295 132.261C295 127.567 291.194 123.761 286.5 123.761C281.806 123.761 278 127.567 278 132.261C278 136.956 281.806 140.761 286.5 140.761Z" fill="#3F3D56"/>
<path d="M286.5 136.761C288.985 136.761 291 134.747 291 132.261C291 129.776 288.985 127.761 286.5 127.761C284.015 127.761 282 129.776 282 132.261C282 134.747 284.015 136.761 286.5 136.761Z" fill="white"/>
<path d="M43.4672 226.761L42.8935 231.089C42.6994 232.554 42.5051 234.02 42.4005 235.494C42.0527 240.397 42.7011 245.319 42.5304 250.231C42.3991 254.012 41.7825 257.791 42.0803 261.563C42.3438 264.9 43.3157 268.139 44.2821 271.35L45.6634 275.939C45.6863 276.217 45.8406 276.468 46.0805 276.619C46.3205 276.77 46.6188 276.803 46.8872 276.708L53 276.167C52.6085 274.413 52.1731 272.585 51.9627 270.802C51.7964 269.391 51.6964 267.974 51.592 266.558C51.2667 262.145 50.8984 257.734 50.5302 253.323L49.8832 245.575C49.6026 242.214 49.3186 238.833 48.4527 235.569C47.5897 232.265 45.8731 229.232 43.4672 226.761Z" fill="#111B47"/>
<path opacity="0.1" d="M43.4672 226.761L42.8935 231.089C42.6994 232.554 42.5051 234.02 42.4005 235.494C42.0527 240.397 42.7011 245.319 42.5304 250.231C42.3991 254.012 41.7825 257.791 42.0803 261.563C42.3438 264.9 43.3157 268.139 44.2821 271.35L45.6634 275.939C45.6863 276.217 45.8406 276.468 46.0805 276.619C46.3205 276.77 46.6188 276.803 46.8872 276.708L53 276.167C52.6085 274.413 52.1731 272.585 51.9627 270.802C51.7964 269.391 51.6964 267.974 51.592 266.558C51.2667 262.145 50.8984 257.734 50.5302 253.323L49.8832 245.575C49.6026 242.214 49.3186 238.833 48.4527 235.569C47.5897 232.265 45.8731 229.232 43.4672 226.761Z" fill="black"/>
<path d="M54.8466 376.201C54.4903 376.9 54.1802 377.621 53.9183 378.36C53.2235 380.4 53.1185 382.587 53.0197 384.741C52.9722 385.156 53.0108 385.577 53.1329 385.977C53.4299 386.751 54.286 387.143 55.0862 387.358C58.4378 388.26 61.9716 387.411 65.4284 387.102C68.8213 386.798 72.2776 387.018 75.6008 386.269C76.092 386.177 76.5667 386.012 77.0095 385.78C77.852 385.232 78.4804 384.411 78.7895 383.454C78.8906 383.21 78.9586 382.953 78.9916 382.69C79.1014 381.557 78.1143 380.573 77.0392 380.2C75.9641 379.828 74.7951 379.889 73.6633 379.773C68.8768 379.281 65.0155 375.638 64.245 370.886C64.2049 370.639 58.6487 370.785 58.0639 371.106C57.3794 371.481 56.9651 372.419 56.5795 373.053C55.9564 374.076 55.3788 375.126 54.8466 376.201Z" fill="#3F3D56"/>
<path opacity="0.1" d="M54.8466 376.201C54.4903 376.9 54.1802 377.621 53.9183 378.36C53.2235 380.4 53.1185 382.587 53.0197 384.741C52.9722 385.156 53.0108 385.577 53.1329 385.977C53.4299 386.751 54.286 387.143 55.0862 387.358C58.4378 388.26 61.9716 387.411 65.4284 387.102C68.8213 386.798 72.2776 387.018 75.6008 386.269C76.092 386.177 76.5667 386.012 77.0095 385.78C77.852 385.232 78.4804 384.411 78.7895 383.454C78.8906 383.21 78.9586 382.953 78.9916 382.69C79.1014 381.557 78.1143 380.573 77.0392 380.2C75.9641 379.828 74.7951 379.889 73.6633 379.773C68.8768 379.281 65.0155 375.638 64.245 370.886C64.2049 370.639 58.6487 370.785 58.0639 371.106C57.3794 371.481 56.9651 372.419 56.5795 373.053C55.9564 374.076 55.3788 375.126 54.8466 376.201Z" fill="black"/>
<path d="M63.8466 376.201C63.4903 376.9 63.1802 377.621 62.9183 378.36C62.2235 380.4 62.1185 382.587 62.0197 384.741C61.9722 385.156 62.0108 385.577 62.1329 385.977C62.4299 386.751 63.286 387.143 64.0862 387.358C67.4378 388.26 70.9716 387.411 74.4284 387.102C77.8213 386.798 81.2776 387.018 84.6008 386.269C85.092 386.177 85.5667 386.012 86.0095 385.78C86.852 385.232 87.4804 384.411 87.7895 383.454C87.8906 383.21 87.9586 382.953 87.9916 382.69C88.1014 381.557 87.1143 380.573 86.0392 380.2C84.9641 379.828 83.7951 379.889 82.6633 379.773C77.8768 379.281 74.0155 375.638 73.245 370.886C73.2049 370.639 67.6487 370.785 67.0639 371.106C66.3794 371.481 65.9651 372.419 65.5795 373.053C64.9564 374.076 64.3788 375.126 63.8466 376.201Z" fill="#3F3D56"/>
<path d="M86.9989 321.716C87.0691 332.763 83.8876 343.56 80.156 353.944C78.6786 358.054 77.1109 362.129 75.4529 366.168C74.4713 368.561 73.3653 371.217 74.4172 373.58C71.3902 372.417 68.2909 371.729 65.0953 372.267C66.3117 369.763 66.1973 366.849 66.2515 364.062C66.3571 360.278 66.7605 356.508 67.4579 352.788C68.5283 347.128 70.3648 341.644 72.9157 336.49C73.4328 335.403 73.7893 334.246 73.9735 333.054C74.3047 330.405 74.1523 327.717 73.5239 325.123C72.3579 319.377 70.1444 313.9 66.9962 308.971C66.9862 309.08 66.9761 309.192 66.9641 309.301C66.7737 310.944 66.4997 312.576 66.1431 314.19C65.4285 317.612 64.5955 321.035 64.7199 324.475C64.8539 328.123 64.63 331.776 64.0515 335.379C63.8678 336.795 63.5028 338.181 62.9656 339.502C62.6163 340.292 62.1607 341.036 61.8856 341.855C61.6128 342.802 61.4703 343.782 61.4621 344.768C61.0546 353.086 61.4561 363.73 63.1402 371.885C60.3022 371.753 57.482 372.401 54.9806 373.761C52.9452 367.963 51.6485 359.726 50.6789 353.619C49.581 346.405 49.8042 339.048 51.3373 331.915C51.8142 329.535 51.9929 327.104 51.8693 324.679C51.6525 319.849 50.4762 315.125 49.308 310.436C48.7138 308.057 48.1197 305.677 47.5255 303.296C46.6804 299.905 45.834 296.513 44.9863 293.121C44.4242 290.865 43.8562 288.56 44.0328 286.239C44.1569 284.967 44.4215 283.713 44.8217 282.5C46.0862 278.372 47.9767 274.467 50.426 270.924C60.1794 271.478 70.0513 270.555 79.7906 269.799C80.2642 269.705 80.7557 269.789 81.1717 270.036C81.5023 270.377 81.6992 270.827 81.7257 271.303C82.9461 278.282 84.1659 285.26 85.385 292.239C85.9787 295.153 86.3272 298.113 86.4268 301.086C86.4448 304.05 85.9691 307.003 86.0795 309.964C86.228 313.953 86.9748 317.725 86.9989 321.716Z" fill="#2F2E41"/>
<path opacity="0.1" d="M67 309.942C66.806 311.562 66.5268 313.17 66.1634 314.761C64.0015 311.109 61.6719 307.548 59.6818 303.804C59.1684 302.839 58.6796 301.862 58.1887 300.887C57.6999 299.912 57.211 298.937 56.7222 297.962C56.4481 297.414 56.172 296.865 55.9245 296.303C55.5202 295.495 55.2101 294.644 55 293.768C55.724 293.638 57.5076 295.544 58.0434 296.042C59.1427 297.101 60.1806 298.218 61.1523 299.39C62.3281 300.69 63.4074 302.07 64.3819 303.52C65.6274 305.497 66.5132 307.67 67 309.942Z" fill="black"/>
<path d="M76 208.377C76 208.377 70.4486 217.338 71.4766 219.214C72.5047 221.089 54 217.546 54 217.546C54 217.546 64.0748 208.585 63.0467 204.834C62.0187 201.083 76 208.377 76 208.377Z" fill="#EFB7B9"/>
<path d="M70.5 210.761C77.4036 210.761 83 205.165 83 198.261C83 191.358 77.4036 185.761 70.5 185.761C63.5964 185.761 58 191.358 58 198.261C58 205.165 63.5964 210.761 70.5 210.761Z" fill="#EFB7B9"/>
<path d="M75.8634 216.975C74.5287 215.13 72.7168 213.677 70.6195 212.771C69.4121 212.342 68.1639 212.036 66.8941 211.858L61.9192 210.989C60.7 210.776 59.395 210.572 58.2639 211.072C57.6858 211.362 57.1594 211.745 56.7059 212.204C54.9767 213.795 53.301 215.545 51.1331 216.463C50.5396 216.714 49.9189 216.898 49.3263 217.152C46.9007 218.19 45.0871 220.356 44.0567 222.772C42.9757 225.307 42.9444 228.054 43.0297 230.805C43.027 231.755 43.121 232.702 43.3102 233.633C43.5612 234.518 43.8765 235.385 44.2538 236.225C44.9408 238.02 45.5162 239.855 45.9767 241.72C47.2655 246.621 48.337 251.573 49.1911 256.574C49.2656 257.293 49.4784 257.991 49.818 258.63C50.298 259.267 50.8789 259.821 51.5379 260.272C52.0597 260.701 52.542 261.176 52.9792 261.691C53.1924 261.91 53.3488 262.178 53.4346 262.471C53.596 263.211 52.9383 263.844 52.4045 264.384C51.2956 265.508 50.494 266.894 50.0758 268.413C49.8153 268.724 49.6831 269.122 49.7059 269.526C49.8127 269.806 49.8524 270.107 49.8221 270.405C49.7197 270.676 49.5598 270.923 49.3532 271.129C48.8721 271.751 48.6836 272.549 48.8358 273.319C52.7009 274.987 56.8373 275.95 61.0462 276.159C62.0769 276.207 63.1116 276.207 64.1356 276.332C64.866 276.422 65.5875 276.575 66.3184 276.659C67.3817 276.758 68.4505 276.785 69.5175 276.74C75.0675 276.631 80.7804 276.488 85.8769 274.302C86.357 271.705 85.3227 269.059 84.6739 266.498C83.6421 262.426 83.3821 258.202 82.6144 254.073C82.089 251.246 81.3258 248.465 80.8882 245.624C80.4506 242.783 80.348 239.837 81.1341 237.071C81.8308 234.62 82.041 232.124 82.7631 229.681C83.4852 227.237 83.9912 224.587 83.176 222.172C82.1653 219.178 79.0376 216.81 75.8634 216.975Z" fill="#111B47"/>
<path d="M81.8375 192.258C82.4466 190.074 81.2487 187.8 79.8156 186.026C78.2757 184.119 76.286 182.399 73.8565 181.921C71.8821 181.531 69.8362 182.001 67.8287 181.845C66.0493 181.706 64.3443 181.08 62.5741 180.855C60.9728 180.686 59.355 180.746 57.7713 181.034C56.2659 181.249 54.7946 181.653 53.3932 182.235C48.0609 184.555 44.9365 190.284 44.2115 195.967C43.4865 201.65 44.7578 207.375 46.0215 212.966L47.1638 218.02C48.3527 223.28 49.5457 228.568 49.8638 233.947C50.1819 239.326 49.5884 244.849 47.3349 249.761C54.6209 245.919 60.2662 239.642 63.2499 232.068C64.0602 229.988 64.6601 227.829 65.5576 225.784C66.3299 224.024 67.3185 222.357 68.0029 220.563C68.7749 218.536 69.1455 216.382 69.095 214.219C69.056 212.592 68.7789 210.974 68.8272 209.348C68.8755 207.722 69.2967 206.025 70.4413 204.85C71.4588 203.804 72.9045 203.302 74.2156 202.644C76.2775 201.605 78.0788 200.129 79.4896 198.323C80.3151 197.267 80.3591 196.816 80.5691 195.597C80.7733 194.412 81.5168 193.408 81.8375 192.258Z" fill="#2F2E41"/>
<path d="M81.8934 284.677C82.0205 285.969 81.7861 287.293 82.0684 288.559C82.2805 289.511 82.7734 290.376 83.0632 291.308C83.351 292.387 83.499 293.498 83.5037 294.615C83.5456 295.552 83.4737 296.691 82.6458 297.13C82.2822 297.323 81.8461 297.326 81.4676 297.488C81.0892 297.65 80.7645 298.109 80.9812 298.459C81.1634 298.753 81.577 298.757 81.916 298.827C82.255 298.896 82.628 299.248 82.4313 299.532C82.3522 299.626 82.247 299.693 82.1293 299.725C81.7827 299.829 81.4545 299.987 81.1568 300.193C80.8558 300.408 80.701 300.773 80.7565 301.139C80.7978 301.314 80.9172 301.46 81.0803 301.535C81.2434 301.611 81.432 301.606 81.5917 301.524C81.4398 301.849 81.3568 302.201 81.348 302.56C82.6727 303.13 84.1638 302.384 85.4105 301.659C85.9512 301.36 86.4731 301.027 86.9735 300.664C89.0118 299.089 90.1396 296.607 89.9861 294.035C89.9284 293.397 89.8306 292.764 89.6936 292.138C89.5003 291.051 89.2451 289.975 88.9294 288.916C88.573 287.8 88.0831 286.731 87.663 285.637C86.7678 283.306 86.1915 280.865 85.3854 278.502C85.3621 278.274 85.2447 278.065 85.0615 277.927C84.8783 277.789 84.6459 277.734 84.4202 277.774C83.5118 277.727 82.6014 277.811 81.717 278.023C81.1825 278.18 80.3058 278.523 80.0662 279.083C79.8503 279.588 80.2121 280.04 80.4417 280.473C81.1933 281.767 81.6864 283.195 81.8934 284.677Z" fill="#EFB7B9"/>
<path opacity="0.1" d="M81.3143 222.761C81.5724 223.03 81.7886 223.339 81.9552 223.675C83.6742 226.877 83.696 230.709 83.7768 234.362C83.8678 238.474 84.0874 242.582 84.307 246.689L84.9638 258.972C85.0265 260.146 85.0894 261.321 85.25 262.484C86.0226 262.684 86.0546 263.707 85.965 264.518C85.412 269.531 84.0359 274.691 85.477 279.514C85.5321 279.763 85.6481 279.993 85.814 280.183C85.0876 279.948 84.3099 279.937 83.5776 280.152C82.8592 280.307 82.1685 280.576 81.4527 280.743C80.5418 280.956 79.5092 281.047 78.8878 281.761C78.1856 279.594 77.6264 277.381 77.214 275.136C76.8729 273.096 76.78 270.976 75.969 269.081C75.6415 268.315 75.204 267.606 74.8048 266.877C72.7044 263.043 71.676 258.707 70.6709 254.433C70.2197 252.406 70.1115 250.315 70.3511 248.251C70.4939 247.309 70.5777 246.359 70.6021 245.406C70.5381 244.401 70.4095 243.401 70.2173 242.413C69.793 239.516 69.9917 236.558 70.7996 233.747C71.5523 231.137 72.2122 228.391 73.7862 226.199C75.3603 224.006 78.6584 222.798 81.3143 222.761Z" fill="black"/>
<path d="M81.3143 221.761C81.5724 222.03 81.7886 222.339 81.9552 222.675C83.6742 225.877 83.696 229.709 83.7768 233.362C83.8678 237.474 84.0874 241.582 84.307 245.689L84.9638 257.972C85.0265 259.146 85.0894 260.321 85.25 261.484C86.0226 261.684 86.0546 262.707 85.965 263.518C85.412 268.531 84.0359 273.691 85.477 278.514C85.5321 278.763 85.6481 278.993 85.814 279.183C85.0876 278.948 84.3099 278.937 83.5776 279.152C82.8592 279.307 82.1685 279.576 81.4527 279.743C80.5418 279.956 79.5092 280.047 78.8878 280.761C78.1856 278.594 77.6264 276.381 77.2141 274.136C76.8729 272.096 76.78 269.976 75.969 268.081C75.6415 267.315 75.204 266.606 74.8048 265.877C72.7044 262.043 71.676 257.707 70.6709 253.433C70.2197 251.406 70.1115 249.315 70.3511 247.251C70.4939 246.309 70.5777 245.359 70.6021 244.406C70.5381 243.401 70.4095 242.401 70.2173 241.413C69.793 238.516 69.9917 235.558 70.7996 232.747C71.5523 230.137 72.2122 227.391 73.7862 225.199C75.3603 223.006 78.6584 221.798 81.3143 221.761Z" fill="#111B47"/>
<g opacity="0.1">
<path d="M79.697 185.342C78.1619 183.421 76.1785 181.689 73.7566 181.207C71.7883 180.815 69.7489 181.288 67.7477 181.13C65.9739 180.991 64.2743 180.36 62.5096 180.133C60.9133 179.963 59.3006 180.024 57.7219 180.314C56.2211 180.531 54.7545 180.937 53.3575 181.523C52.6026 181.856 51.8821 182.262 51.2063 182.734C52.4517 182.266 53.7438 181.931 55.0607 181.735C56.6394 181.446 58.2521 181.385 59.8483 181.555C61.613 181.782 63.3127 182.413 65.0865 182.552C67.0876 182.71 69.1271 182.237 71.0953 182.628C73.5172 183.111 75.5007 184.843 77.0357 186.763C78.4644 188.55 79.6586 190.84 79.0513 193.04C78.7316 194.198 77.9905 195.21 77.7869 196.404C77.5776 197.631 77.5338 198.085 76.7108 199.149C75.6516 200.517 74.3704 201.701 72.9196 202.652C73.3199 202.463 73.7232 202.278 74.1146 202.08C76.17 201.033 77.9657 199.546 79.372 197.727C80.195 196.663 80.2388 196.209 80.4481 194.982C80.6517 193.788 81.3928 192.777 81.7126 191.618C82.3198 189.418 81.1257 187.129 79.697 185.342Z" fill="black"/>
<path d="M70.3521 204.301C70.5667 204.081 70.8003 203.879 71.0503 203.699C69.8571 204.273 68.6019 204.777 67.6909 205.723C66.5499 206.907 66.13 208.616 66.0819 210.253C66.0337 211.891 66.31 213.521 66.3488 215.159C66.3992 217.338 66.0297 219.507 65.2602 221.549C64.5779 223.356 63.5924 225.035 62.8226 226.808C61.9278 228.868 61.3299 231.042 60.5221 233.137C57.9419 239.75 53.36 245.407 47.4066 249.33C47.3763 249.399 47.3491 249.468 47.3181 249.536C54.5814 245.666 60.2089 239.344 63.1833 231.715C63.9911 229.62 64.5891 227.446 65.4838 225.386C66.2536 223.614 67.2391 221.935 67.9214 220.127C68.6909 218.086 69.0604 215.917 69.01 213.737C68.9712 212.099 68.695 210.469 68.7431 208.832C68.7912 207.194 69.2111 205.485 70.3521 204.301Z" fill="black"/>
</g>
<path d="M342.525 385.583C341.925 386.265 340.897 386.402 339.967 386.492C338.765 386.656 337.546 386.678 336.339 386.558C334.905 386.357 334.045 387.124 332.735 386.534C331.942 386.177 330.722 386.891 329.929 386.534C328.843 386.044 325.091 385.943 324.429 384.988C323.768 384.033 323.835 382.524 324.881 381.96C325.178 381.827 325.484 381.715 325.797 381.623C327.548 380.967 331.096 376.02 332.959 375.767C333.883 375.726 334.801 375.93 335.609 376.354C337.446 377.122 340.689 377.728 341.491 379.675C342.115 381.193 343.824 384.1 342.525 385.583Z" fill="#2F2E41"/>
<path d="M355.47 386.161C356.063 386.883 357.079 387.029 357.999 387.124C359.186 387.297 360.391 387.321 361.584 387.193C363.002 386.98 364.73 388.207 366.025 387.582C366.809 387.204 368.015 387.401 368.798 387.023C369.872 386.505 374.922 387.66 375.576 386.649C376.229 385.638 376.163 384.04 375.129 383.443C374.836 383.303 374.533 383.183 374.223 383.086C372.492 382.391 366.768 376.035 364.926 375.767C364.012 375.724 363.105 375.94 362.306 376.389C360.491 377.202 357.284 377.843 356.492 379.906C355.875 381.512 354.186 384.591 355.47 386.161Z" fill="#2F2E41"/>
<path d="M361.088 273.604C361.653 274.682 362.147 275.794 362.566 276.936C367.581 290.097 368.001 304.479 368.209 318.548C368.191 320.835 368.323 323.121 368.603 325.392C368.813 326.832 369.145 328.287 368.931 329.726C368.746 330.971 368.155 332.198 368.391 333.434C368.496 333.989 368.764 334.503 368.87 335.057C368.951 335.665 368.934 336.282 368.82 336.885L368.147 341.847C367.764 344.674 366.88 347.397 366.928 350.249C366.961 352.195 366.994 354.144 367.213 356.077C367.434 358.041 367.847 359.989 367.868 361.965C367.884 363.444 367.68 364.916 367.548 366.389C367.362 368.471 367.32 370.562 367.422 372.649C367.5 374.257 367.686 375.926 368.546 377.292C367.583 378.662 366.629 379.889 365.087 380.56C361.953 381.923 358.358 381.461 354.972 380.973C355.159 380.353 355.45 379.651 355.179 379.062C355.02 378.777 354.824 378.513 354.598 378.277C353.859 377.234 353.345 376.051 353.091 374.801C352.681 373.32 352.271 371.725 353.112 370.303C353.402 369.796 353.53 369.215 353.479 368.634C352.778 359.305 350.686 349.652 352.613 340.495C352.819 339.518 353.064 338.546 353.179 337.554C353.282 336.128 353.299 334.696 353.23 333.267L353.19 331.278C353.089 329.156 353.176 326.981 352.747 324.881C352.44 323.378 351.866 321.867 352.573 320.335C352.886 319.623 352.847 318.808 352.468 318.128C350.981 315.543 349.785 312.804 348.901 309.959C348.717 309.164 348.466 308.386 348.15 307.634C347.718 306.84 347.222 306.084 346.667 305.37C344.989 302.957 343.985 300.156 343 297.392C343.105 297.138 343.025 296.785 342.751 296.822C342.48 296.89 342.247 297.062 342.104 297.3C340.755 299.1 340.642 301.5 340.581 303.742C340.478 305.825 340.514 307.913 340.688 309.991C340.804 311.08 340.995 312.16 341.094 313.251C341.223 315.285 341.19 317.327 340.996 319.357L340.307 329.344C340.214 330.17 340.264 331.005 340.455 331.814C340.898 333.214 341.113 334.674 341.094 336.141C340.913 342.174 341.438 348.207 342.661 354.12C342.997 355.752 343.386 357.374 343.672 359.016C344.345 362.885 344.437 366.828 344.528 370.754C344.583 373.167 344.623 375.668 343.664 377.887C343.29 378.571 343.015 379.304 342.848 380.065C342.844 380.457 342.792 380.848 342.691 381.227C342.41 381.945 341.566 382.251 340.806 382.415C339.38 382.723 337.917 382.826 336.461 382.722C336.119 382.717 335.782 382.642 335.47 382.504C334.927 382.225 334.639 381.633 334.226 381.186C333.335 380.221 331.854 379.925 331.043 378.894C330.028 377.604 330.454 375.735 331.058 374.212C331.662 372.69 332.41 371.036 331.89 369.484C331.277 367.654 329.105 366.668 328.522 364.829C330.186 357.41 326.099 349.736 326.449 342.144C326.531 340.375 326.84 338.62 326.846 336.849C326.862 332.289 324.871 327.852 325.198 323.303C326.031 311.744 322.062 300.204 320.38 288.736C320.062 287.024 319.943 285.282 320.026 283.543C320.275 280.673 321.619 278.001 323.234 275.607C324.392 273.891 325.784 272.212 327.702 271.41C329.281 270.749 331.05 270.751 332.764 270.765C337.04 270.798 341.316 270.83 345.591 270.907C348.501 270.866 351.407 271.124 354.263 271.676C356.576 272.201 358.739 273.271 361.088 273.604Z" fill="#2F2E41"/>
<path d="M292.641 220.886C292.212 218.816 293.023 216.601 292.389 214.582C292.16 213.854 291.598 213.098 290.825 213.119C290.075 213.139 289.567 213.864 288.901 214.207C287.828 214.76 286.525 214.258 285.453 213.703C284.381 213.149 283.186 212.522 282.023 212.854C281.886 213.572 282.378 214.257 282.913 214.762C283.506 215.204 283.996 215.764 284.352 216.407C284.527 217.102 284.593 217.819 284.549 218.534C284.671 220.174 285.724 221.586 286.777 222.862C288.473 224.917 290.274 226.886 292.173 228.761C292.17 228.758 295.055 225.239 294.999 224.625C294.947 224.045 293.976 223.502 293.624 223.035C293.141 222.398 292.806 221.664 292.641 220.886Z" fill="#A1616A"/>
<path d="M374.591 263.137C374.833 263.786 375.015 264.457 375.133 265.142C375.834 268.649 376.276 272.205 376.712 275.758C376.828 276.706 376.944 277.656 376.98 278.611C377.103 280.879 376.651 283.14 375.669 285.172C374.669 287.21 372.971 288.79 370.903 289.604C370.267 289.838 369.377 289.88 369.099 289.244C369 288.95 369.002 288.63 369.105 288.338C369.356 287.392 369.868 286.542 370.2 285.623C370.692 284.25 370.774 282.756 370.435 281.334C370.305 280.79 370.029 280.183 369.496 280.075C369.762 281.329 369.538 282.64 368.873 283.725C368.722 284.027 368.461 284.255 368.147 284.36C367.694 284.407 367.269 284.124 367.124 283.679C366.994 283.241 366.966 282.779 367.041 282.328C367.212 280.049 367.548 277.786 368.047 275.559C368.641 273.115 369.582 270.703 369.521 268.183C369.467 265.9 368.585 263.659 368.832 261.389C368.836 261.249 368.879 261.113 368.958 260.998C369.035 260.919 369.13 260.859 369.234 260.823C369.851 260.56 370.487 260.342 371.135 260.174C371.518 260.074 372.825 259.605 373.192 259.815C373.489 259.985 373.581 261.002 373.729 261.346C373.992 261.955 374.342 262.52 374.591 263.137Z" fill="#A1616A"/>
<path d="M330 195.761C334.971 195.761 339 191.732 339 186.761C339 181.791 334.971 177.761 330 177.761C325.029 177.761 321 181.791 321 186.761C321 191.732 325.029 195.761 330 195.761Z" fill="#A1616A"/>
<path d="M338.684 193.371C338.683 193.964 338.73 194.555 338.824 195.14C338.952 195.731 339.132 196.31 339.364 196.868C339.673 197.777 340.109 198.637 340.659 199.422C341.218 200.212 342.055 200.76 343 200.954C336.678 203.931 329.928 205.891 323 206.761C324.092 206.032 325 205.058 325.653 203.916C326 203.182 326.236 202.402 326.356 201.599C326.946 198.239 326.646 194.782 325.487 191.576C325.372 191.26 325.259 190.872 325.477 190.616C325.569 190.521 325.682 190.448 325.805 190.401C328.552 189.233 331.519 188.677 334.501 188.772C335.263 188.777 336.025 188.811 336.785 188.866C337.193 188.896 338.096 188.809 338.421 189.11C338.809 189.469 338.615 190.583 338.627 191.07L338.684 193.371Z" fill="#A1616A"/>
<path d="M342.95 200.544C340.148 196.982 335.259 195.774 331.1 197.616C326.694 199.702 324.524 204.711 320.649 207.657C319.768 208.311 318.828 208.885 317.843 209.371C317.261 209.69 316.641 209.934 315.997 210.096C315.272 210.254 314.516 210.232 313.795 210.404C312.421 210.805 311.25 211.706 310.518 212.926C310.156 213.565 309.753 214.18 309.314 214.769C308.909 215.246 308.406 215.631 307.978 216.088C306.437 217.73 306.019 220.088 305.667 222.304C304.462 223.563 303.146 224.714 301.736 225.743C301.292 226.082 300.8 226.352 300.275 226.544C298.92 226.98 297.425 226.426 296.269 225.598C295.114 224.77 294.173 223.679 293.033 222.83C291.987 224.314 290.893 225.802 289.777 227.236C289.609 227.509 289.352 227.718 289.049 227.828C288.84 228.527 289.342 229.251 289.718 229.878L291.737 233.242C292.404 234.467 293.222 235.604 294.173 236.628C295.138 237.657 296.455 238.293 297.867 238.41C298.758 238.402 299.641 238.234 300.472 237.915C304.319 236.632 307.85 234.584 311.509 232.844C312.172 232.468 312.914 232.252 313.677 232.214C314.46 232.193 315.161 232.693 315.39 233.436C315.809 235.538 316.226 237.632 316.803 239.696C317.347 241.643 317.853 243.601 318.319 245.568C318.631 246.771 318.854 247.996 318.986 249.232C319.046 249.934 319.053 250.639 319.059 251.343L319.137 259.854C319.145 260.771 318.619 261.342 318.213 262.166C317.592 263.443 317.498 264.911 317.952 266.256C318.18 266.92 318.536 267.534 318.788 268.189C319.398 269.772 319.375 271.516 319.343 273.211L319.27 277.095C319.252 277.256 319.281 277.419 319.355 277.563C319.594 277.934 320.17 277.717 320.534 277.466L322.365 276.208C324.815 276.543 327.29 276.661 329.761 276.562C336.789 276.461 343.818 276.739 350.829 277.225C353.169 277.388 355.587 277.564 357.798 276.79C358.92 276.397 359.954 275.769 361.101 275.454C361.574 275.381 362.023 275.198 362.411 274.919C363.053 274.33 362.883 273.297 362.621 272.469C362.392 271.746 362.132 271.033 361.841 270.33C361.541 269.684 361.297 269.014 361.111 268.328C360.76 266.779 361.101 264.989 360.129 263.727C357.952 260.903 359.493 256.559 358.579 253.122C358.284 252.01 357.847 250.938 357.57 249.821C357.396 249.12 357.286 248.405 357.176 247.691C356.89 246.147 356.748 244.58 356.752 243.01C356.778 242.225 356.878 241.444 356.978 240.664L357.669 235.25C358.534 236.851 359.135 238.579 359.449 240.368C360.078 243.041 360.853 245.677 361.77 248.267C362.292 249.828 362.813 251.39 363.376 252.937C363.733 253.818 364.008 254.729 364.197 255.659C364.321 256.409 364.325 257.174 364.412 257.93C364.602 259.55 365.173 261.103 366.081 262.463C366.248 262.778 366.526 263.022 366.862 263.15C367.088 263.192 367.321 263.182 367.544 263.123C369.988 262.644 372.353 261.832 374.572 260.711C375.045 260.517 375.456 260.2 375.759 259.792C376.357 258.828 375.689 257.625 375.398 256.531C375.087 255.359 375.16 253.948 374.229 253.163C370.987 250.427 372.596 244.872 370.974 240.969C370.689 240.284 370.357 239.617 370.112 238.917C369.924 238.382 369.788 237.831 369.651 237.281C368.518 232.735 367.306 228.21 366.014 223.705C364.675 219.034 364.818 214.169 363.132 209.61C362.815 208.654 362.401 207.733 361.897 206.86C361.326 205.948 360.563 205.17 359.661 204.577C357.214 202.972 354.744 201.605 351.87 201.023C348.995 200.441 345.883 200.531 342.95 200.544Z" fill="#D0CDE1"/>
<path d="M321.599 188.89C320.349 188.221 320.679 186.404 320.466 185.009C320.029 182.139 316.766 180.436 316 177.634C316.88 177.742 317.773 177.616 318.589 177.27C318.746 176.34 318.561 175.384 318.067 174.579C320.751 173.495 322.923 171.369 325.648 170.392C329.075 169.163 332.891 169.917 336.348 171.059C338.073 171.629 339.868 172.369 340.911 173.849C342.056 175.474 342.039 177.613 341.977 179.597C341.881 182.708 341.757 185.93 340.364 188.718C338.59 192.266 333.567 195.553 329.417 194.592C327.691 194.192 327.183 193.115 326.456 191.624C326.003 190.696 325.833 189.619 324.814 189.136C323.817 188.665 322.61 189.432 321.599 188.89Z" fill="#2F2E41"/>
<g opacity="0.1">
<path d="M359.612 255.05C359.624 255.295 359.631 255.542 359.633 255.79C359.621 255.546 359.615 255.298 359.612 255.05Z" fill="black"/>
<path d="M319.526 264.331C320.136 265.925 320.113 267.681 320.081 269.386C320.073 269.832 320.064 270.277 320.056 270.722C320.017 269.802 319.839 268.894 319.526 268.027C319.274 267.368 318.918 266.751 318.69 266.083C318.3 264.915 318.314 263.65 318.731 262.491C318.959 263.119 319.288 263.707 319.526 264.331Z" fill="black"/>
</g>
<g opacity="0.1">
<path d="M318.483 175.73L318.474 175.734C318.398 175.156 318.242 174.603 318.013 174.103C318.155 174.026 318.295 173.944 318.434 173.859C318.544 174.472 318.56 175.108 318.483 175.73Z" fill="black"/>
</g>
<path d="M28 157.761L25.8249 155.777C18.1007 148.606 13.0013 143.952 13.0013 138.154C12.9626 135.926 13.8177 133.776 15.3717 132.195C16.9257 130.614 19.0463 129.736 21.2505 129.762C23.8566 129.776 26.3247 130.948 28 132.966C29.6752 130.948 32.1434 129.776 34.7494 129.762C36.9537 129.736 39.0743 130.614 40.6283 132.195C42.1823 133.776 43.0374 135.926 42.9987 138.154C42.9987 143.952 37.8992 148.606 30.1751 155.777L28 157.761Z" fill="#FF6584"/>
<path fill-rule="evenodd" clip-rule="evenodd" d="M32 152.761L29.8249 150.777C22.1007 143.606 17.0013 138.952 17.0013 133.154C16.9626 130.926 17.8177 128.776 19.3717 127.195C20.9257 125.614 23.0463 124.736 25.2505 124.762C27.8566 124.776 30.3247 125.948 32 127.966C33.6752 125.948 36.1434 124.776 38.7494 124.762C40.9537 124.736 43.0743 125.614 44.6283 127.195C46.1823 128.776 47.0374 130.926 46.9987 133.154C46.9987 138.952 41.8992 143.606 34.1751 150.777L32 152.761Z" stroke="#3F3D56" stroke-width="2"/>
</g>
<defs>
<filter id="filter0_d_108_1540" x="0" y="0.761475" width="548" height="395.5" filterUnits="userSpaceOnUse" color-interpolation-filters="sRGB">
<feFlood flood-opacity="0" result="BackgroundImageFix"/>
<feColorMatrix in="SourceAlpha" type="matrix" values="0 0 0 0 0 0 0 0 0 0 0 0 0 0 0 0 0 0 127 0" result="hardAlpha"/>
<feOffset dy="4"/>
<feGaussianBlur stdDeviation="2"/>
<feComposite in2="hardAlpha" operator="out"/>
<feColorMatrix type="matrix" values="0 0 0 0 0 0 0 0 0 0 0 0 0 0 0 0 0 0 0.25 0"/>
<feBlend mode="normal" in2="BackgroundImageFix" result="effect1_dropShadow_108_1540"/>
<feBlend mode="normal" in="SourceGraphic" in2="effect1_dropShadow_108_1540" result="shape"/>
</filter>
</defs>
</svg>
